<svg xmlns="http://www.w3.org/2000/svg" xmlns:svg="http://www.w3.org/2000/svg" xmlns:xlink="http://www.w3.org/1999/xlink" version="1.0" height="1150pt" width="808.5265682781583pt" viewBox="536.473431721842 -252.99999999999994 816.5265682781583 1156" ><defs><style type="text/css">
            @font-face {
                font-family: 'lt_regular';
                src: url('https://app.creately.com/diagram/assets/fonts/lato/lt-regular-webfont.woff2') format('woff2'),
                    url('https://app.creately.com/diagram/assets/fonts/lato/lt-regular-webfont.woff') format('woff');
                font-weight: normal;
                font-style: normal;
            }
            @font-face {
                font-family: 'noto_regular';
                src: url('https://app.creately.com/diagram/assets/fonts/noto/noto-regular.woff') format('woff'),
                     url('https://app.creately.com/diagram/assets/fonts/noto/noto-regular.woff2') format('woff2');
                font-weight: normal;
                font-style: normal;
            }
        p {
            margin: 0;
        }
        </style></defs><defs><style>
            span{ display: inline-block; }
        </style></defs><g id="RCTzK4SjwZE"><g transform="translate(650 -249.99999999999994)"><path d="M 25.000000000000018,50.000000000000036 L 25.000000000000018,50.000000000000036 L 25.000000000000018,50.000000000000036 A 25.000000000000018 25.000000000000018 0 0 1 0 25.00000000000002 L 0,25.000000000000018 L 0,25.00000000000002 A 25.000000000000018 25.000000000000018 0 0 1 25.000000000000018 0 L 74.99999999999999,0 L 74.99999999999999,0 L 74.99999999999999,0 A 25.000000000000018 25.000000000000018 0 0 1 100 25.000000000000018 L 100,25.000000000000018 L 100,25.000000000000018 A 25.000000000000018 25.000000000000018 0 0 1 74.99999999999999 50.000000000000036 L 25.000000000000018,50.000000000000036 Z" fill="rgb(236,74,66)" stroke="#EC4A42" stroke-width="2" stroke-linecap="round" stroke-linejoin="round" stroke-dasharray="0 0"/></g><g transform="translate(683, -235.99999999999994) rotate(0, 17, 11)" width="34" height="22"><text text-decoration="none" x="0" fill="#ffffff" font-size="12pt" font-family="lt_regular"  y="17">Start</text><text text-decoration="none" x="35" fill="#4b4b4b" font-size="10pt" font-family="noto_regular"  y="17"></text></g></g><g id="Y94GCbzVJuG"><g transform="translate(600 -150.00000000000057)"><rect x="0" y="0" width="200.0000000000001" height="70.00000000000055" fill="rgb(45,148,228)" stroke="#2D94E4" stroke-width="2" stroke-linecap="round" stroke-linejoin="round" stroke-dasharray="0 0"/></g><g transform="translate(628.5, -126.00000000000028) rotate(0, 71.5, 11)" width="143" height="22"><text text-decoration="none" x="0" fill="#ffffff" font-size="12pt" font-family="lt_regular"  y="17">Enter&#160;</text><text text-decoration="none" x="42" fill="#ffffff" font-size="12pt" font-family="lt_regular"  y="17">to&#160;</text><text text-decoration="none" x="61" fill="#ffffff" font-size="12pt" font-family="lt_regular"  y="17">the&#160;</text><text text-decoration="none" x="88" fill="#ffffff" font-size="12pt" font-family="lt_regular"  y="17">website</text><text text-decoration="none" x="143" fill="#4b4b4b" font-size="10pt" font-family="noto_regular"  y="17"></text></g></g><g id="s1VDZEZTWED"><g transform="translate(600 0)"><path d="M 99.99999999999997,0 L 0,49.99999999999997 L 99.99999999999997,99.99999999999994 L 199.99999999999994,49.99999999999997 L 99.99999999999997,0 Z" fill="rgb(0,66,145)" stroke="#004291" stroke-width="2" stroke-linecap="round" stroke-linejoin="round" stroke-dasharray="0 0"/></g><g transform="translate(641.5, 38.99999999999997) rotate(0, 58.5, 11)" width="117" height="22"><text text-decoration="none" x="0" fill="#ffffff" font-size="12pt" font-family="lt_regular"  y="17">have&#160;</text><text text-decoration="none" x="37" fill="#ffffff" font-size="12pt" font-family="lt_regular"  y="17">an&#160;</text><text text-decoration="none" x="58" fill="#ffffff" font-size="12pt" font-family="lt_regular"  y="17">account&#160;</text><text text-decoration="none" x="119" fill="#4b4b4b" font-size="10pt" font-family="noto_regular"  y="17"></text></g></g><g id="gGXIQ2h4k4H"><g transform="translate(920 20)"><rect x="0" y="0" width="150" height="60.000000000000014" fill="rgb(45,148,228)" stroke="#2D94E4" stroke-width="2" stroke-linecap="round" stroke-linejoin="round" stroke-dasharray="0 0"/></g><g transform="translate(967, 39.00000000000001) rotate(0, 28, 11)" width="56" height="22"><text text-decoration="none" x="0" fill="#ffffff" font-size="12pt" font-family="lt_regular"  y="17">Sign&#160;</text><text text-decoration="none" x="34" fill="#ffffff" font-size="12pt" font-family="lt_regular"  y="17">up&#160;</text><text text-decoration="none" x="56" fill="#4b4b4b" font-size="10pt" font-family="noto_regular"  y="17"></text></g></g><g id="Xm39O0migyC"><g transform="translate(1200 20)"><rect x="0" y="0" width="150.0000000000003" height="60" fill="rgb(45,148,228)" stroke="#2D94E4" stroke-width="2" stroke-linecap="round" stroke-linejoin="round" stroke-dasharray="0 0"/></g><g transform="translate(1232.5, 28) rotate(0, 42.5, 22)" width="85" height="44"><text text-decoration="none" x="4.5" fill="#ffffff" font-size="12pt" font-family="lt_regular"  y="17">Fill&#160;</text><text text-decoration="none" x="29.5" fill="#ffffff" font-size="12pt" font-family="lt_regular"  y="17">out&#160;</text><text text-decoration="none" x="57.5" fill="#ffffff" font-size="12pt" font-family="lt_regular"  y="17">the&#160;</text><text text-decoration="none" x="0" fill="#ffffff" font-size="12pt" font-family="lt_regular"  y="39">information&#160;</text><text text-decoration="none" x="87" fill="#4b4b4b" font-size="10pt" font-family="noto_regular"  y="39"></text></g></g><g id="QudwnfNStRk"><g transform="translate(620 390.00000000000006)"><rect x="0" y="0" width="160.00000000000006" height="60" fill="rgb(45,148,228)" stroke="#2D94E4" stroke-width="2" stroke-linecap="round" stroke-linejoin="round" stroke-dasharray="0 0"/></g><g transform="translate(642.5, 398.00000000000006) rotate(0, 57.5, 22)" width="115" height="44"><text text-decoration="none" x="0" fill="#ffffff" font-size="12pt" font-family="lt_regular"  y="17">Enter&#160;</text><text text-decoration="none" x="42" fill="#ffffff" font-size="12pt" font-family="lt_regular"  y="17">e-mail&#160;</text><text text-decoration="none" x="89" fill="#ffffff" font-size="12pt" font-family="lt_regular"  y="17">and&#160;</text><text text-decoration="none" x="23.5" fill="#ffffff" font-size="12pt" font-family="lt_regular"  y="39">password</text><text text-decoration="none" x="91.5" fill="#4b4b4b" font-size="10pt" font-family="noto_regular"  y="39"></text></g></g><g id="3BnzXmgoath"><g transform="translate(620 250)"><rect x="0" y="0" width="160.00000000000006" height="60" fill="rgb(45,148,228)" stroke="#2D94E4" stroke-width="2" stroke-linecap="round" stroke-linejoin="round" stroke-dasharray="0 0"/></g><g transform="translate(679, 269) rotate(0, 21, 11)" width="42" height="22"><text text-decoration="none" x="0" fill="#ffffff" font-size="12pt" font-family="lt_regular"  y="17">Log&#160;</text><text text-decoration="none" x="29" fill="#ffffff" font-size="12pt" font-family="lt_regular"  y="17">in</text><text text-decoration="none" x="42" fill="#4b4b4b" font-size="10pt" font-family="noto_regular"  y="17"></text></g></g><g id="fgNx0NABa4i"><g transform="translate(600 520)"><path d="M 99.99999999999993,0 L 0,49.99999999999994 L 99.99999999999993,99.99999999999989 L 199.99999999999986,49.99999999999994 L 99.99999999999993,0 Z" fill="rgb(0,66,145)" stroke="#004291" stroke-width="2" stroke-linecap="round" stroke-linejoin="round" stroke-dasharray="0 0"/></g><g transform="translate(628, 548) rotate(0, 72, 22)" width="144" height="44"><text text-decoration="none" x="35.5" fill="#ffffff" font-size="12pt" font-family="lt_regular"  y="17">e-mail&#160;</text><text text-decoration="none" x="82.5" fill="#ffffff" font-size="12pt" font-family="lt_regular"  y="17">and&#160;</text><text text-decoration="none" x="17.5" fill="#ffffff" font-size="12pt" font-family="lt_regular"  y="39">password&#160;</text><text text-decoration="none" x="89.5" fill="#ffffff" font-size="12pt" font-family="lt_regular"  y="39">valid&#160;</text><text text-decoration="none" x="126.5" fill="#4b4b4b" font-size="10pt" font-family="noto_regular"  y="39"></text></g></g><g id="Xt5Fw0aBbeM"><g transform="translate(1200 250.00000000000006)"><rect x="0" y="0" width="149.9999999999997" height="60" fill="rgb(45,148,228)" stroke="#2D94E4" stroke-width="2" stroke-linecap="round" stroke-linejoin="round" stroke-dasharray="0 0"/></g><g transform="translate(1248.5, 269.00000000000006) rotate(0, 26.5, 11)" width="53" height="22"><text text-decoration="none" x="0" fill="#ffffff" font-size="12pt" font-family="lt_regular"  y="17">Submit&#160;</text><text text-decoration="none" x="54" fill="#4b4b4b" font-size="10pt" font-family="noto_regular"  y="17"></text></g></g><g id="gd4KFPMQgZj"><g transform="translate(620 690)"><rect x="0" y="0" width="160.00000000000006" height="60" fill="rgb(45,148,228)" stroke="#2D94E4" stroke-width="2" stroke-linecap="round" stroke-linejoin="round" stroke-dasharray="0 0"/></g><g transform="translate(649.5, 698) rotate(0, 50.5, 22)" width="101" height="44"><text text-decoration="none" x="0" fill="#ffffff" font-size="12pt" font-family="lt_regular"  y="17">loged&#160;</text><text text-decoration="none" x="42" fill="#ffffff" font-size="12pt" font-family="lt_regular"  y="17">in&#160;</text><text text-decoration="none" x="59" fill="#ffffff" font-size="12pt" font-family="lt_regular"  y="17">to&#160;</text><text text-decoration="none" x="78" fill="#ffffff" font-size="12pt" font-family="lt_regular"  y="17">the&#160;</text><text text-decoration="none" x="26" fill="#ffffff" font-size="12pt" font-family="lt_regular"  y="39">system</text><text text-decoration="none" x="75" fill="#4b4b4b" font-size="10pt" font-family="noto_regular"  y="39"></text></g></g><g id="WKg5cTaHjsn"><g transform="translate(650 849.9999999999999)"><path d="M 25.0000000000001,50.0000000000002 L 25.0000000000001,50.0000000000002 L 25.0000000000001,50.0000000000002 A 25.0000000000001 25.0000000000001 0 0 1 0 25.000000000000103 L 0,25.0000000000001 L 0,25.000000000000103 A 25.0000000000001 25.0000000000001 0 0 1 25.0000000000001 0 L 74.99999999999993,0 L 74.99999999999993,0 L 74.99999999999993,0 A 25.0000000000001 25.0000000000001 0 0 1 100.00000000000003 25.0000000000001 L 100.00000000000003,25.0000000000001 L 100.00000000000003,25.0000000000001 A 25.0000000000001 25.0000000000001 0 0 1 74.99999999999993 50.0000000000002 L 25.0000000000001,50.0000000000002 Z" fill="rgb(236,74,66)" stroke="#EC4A42" stroke-width="2" stroke-linecap="round" stroke-linejoin="round" stroke-dasharray="0 0"/></g><g transform="translate(685, 864) rotate(0, 15, 11)" width="30" height="22"><text text-decoration="none" x="0" fill="#ffffff" font-size="12pt" font-family="lt_regular"  y="17">end&#160;</text><text text-decoration="none" x="30" fill="#4b4b4b" font-size="10pt" font-family="noto_regular"  y="17"></text></g></g><g id="oqITzCAtIaB"><g><path d="M 700,450.00000000000006 L 700,473.53398058252424 Q 700,473.55339805825236 700.0194174757281,483.53398058252424 Q 700.0388349514562,493.5145631067961 700.0388349514562,493.53398058252424 L 700.0388349514562,517.0679611650485" fill="none" stroke="#004291" stroke-width="2" stroke-linecap="round" stroke-linejoin="round" stroke-dasharray="0 0"/><path d="M 700.0388349514562,517.0679611650485 L 705.7888349514562,508.3723089911354 L 694.2888349514562,508.3723089911354 Z" fill="rgb(0,66,145)" stroke="#004291" stroke-width="2" stroke-linecap="round" stroke-linejoin="round"/></g></g><g id="YunOgv1JemN"><g><path d="M 700,310 L 700,338.6640776699029 Q 700,338.683495145631 700.0194174757281,348.6640776699029 Q 700.0388349514562,358.6446601941748 700.0388349514562,358.6640776699029 L 700.0388349514562,387.32815533980585" fill="none" stroke="#004291" stroke-width="2" stroke-linecap="round" stroke-linejoin="round" stroke-dasharray="0 0"/><path d="M 700.0388349514562,387.32815533980585 L 705.7888349514562,378.6325031658928 L 694.2888349514562,378.6325031658928 Z" fill="rgb(0,66,145)" stroke="#004291" stroke-width="2" stroke-linecap="round" stroke-linejoin="round"/></g></g><g id="5BKegravgRQ"><g><path d="M 700,750 L 700,790.5553398058253 Q 700,790.5747572815534 700.0194174757281,800.5553398058253 Q 700.0388349514562,810.5359223300972 700.0388349514562,810.5553398058253 L 700.0388349514562,851.1106796116504" fill="none" stroke="#004291" stroke-width="2" stroke-linecap="round" stroke-linejoin="round" stroke-dasharray="0 0"/><path d="M 700.0388349514562,851.1106796116504 L 705.7888349514562,842.4150274377374 L 694.2888349514562,842.4150274377374 Z" fill="rgb(0,66,145)" stroke="#004291" stroke-width="2" stroke-linecap="round" stroke-linejoin="round"/></g></g><g id="ivhDAkblVU0"><g><path d="M 1200,280 L 1000,280.00000000000006 Q 1000,280.00000000000006 990,280 Q 980,280 980,280 L 780,280" fill="none" stroke="#004291" stroke-width="2" stroke-linecap="round" stroke-linejoin="round" stroke-dasharray="0 0"/><path d="M 780,280 L 788.695652173913,285.75 L 788.695652173913,274.25 Z" fill="rgb(0,66,145)" stroke="#004291" stroke-width="2" stroke-linecap="round" stroke-linejoin="round"/></g></g><g id="hpsUzreei26"><mask id="8dc64" x="538" y="266" width="96" height="318" maskUnits="userSpaceOnUse"><rect x="538" y="266" width="96" height="318" fill="white" /><rect x="538.473431721842" y="400.9786693989312" width="27" height="28" fill="black" /></mask><g mask="url(#8dc64)"><path d="M 600,570 L 561.6154667037849,570 Q 551.6154667037849,570 551.6419861482013,560.0000351641085 L 552,425 L 551.6419783376645,289.95724640999975 Q 551.6154667037849,279.95728155339805 561.6154647526603,279.96352835164436 L 620,280" fill="none" stroke="#004291" stroke-width="2" stroke-linecap="round" stroke-linejoin="round" stroke-dasharray="0 0"/><path d="M 620,280 L 611.304347826087,274.25 L 611.304347826087,285.75 Z" fill="rgb(0,66,145)" stroke="#004291" stroke-width="2" stroke-linecap="round" stroke-linejoin="round"/></g><g transform="translate(541.473431721842, 403.9786693989312)" width="21" height="22"><text text-decoration="none" x="0" fill="#4b4b4b" font-size="12pt" font-family="lt_regular"  y="17">No</text><text text-decoration="none" x="21" fill="#4b4b4b" font-size="10pt" font-family="noto_regular"  y="17"></text></g></g><g id="XfMO78cXxcB"><mask id="7b8dc" x="686" y="606" width="28" height="98" maskUnits="userSpaceOnUse"><rect x="686" y="606" width="28" height="98" fill="white" /><rect x="685" y="641.1500199999998" width="30" height="28" fill="black" />undefined</mask><g mask="url(#7b8dc)"><path d="M 700,620 C 700,669.9999999999999 700,640 700,690" fill="none" stroke="#004291" stroke-width="2" stroke-linecap="round" stroke-linejoin="round" stroke-dasharray="0 0"/><path d="M 700,690 L 705.75,681.304347826087 L 694.25,681.304347826087 Z" fill="rgb(0,66,145)" stroke="#004291" stroke-width="2" stroke-linecap="round" stroke-linejoin="round"/></g><g transform="translate(688, 644.1500199999998)" width="24" height="22"><text text-decoration="none" x="0" fill="#4b4b4b" font-size="12pt" font-family="lt_regular"  y="17">Yes</text><text text-decoration="none" x="25" fill="#4b4b4b" font-size="10pt" font-family="noto_regular"  y="17"></text></g>undefined</g><g id="smHyLGgfjjO"><mask id="64d31" x="786" y="36" width="148" height="28" maskUnits="userSpaceOnUse"><rect x="786" y="36" width="148" height="28" fill="white" /><rect x="846.5" y="35.999999999999986" width="27" height="28" fill="black" /></mask><g mask="url(#64d31)"><path d="M 800,50 L 850,49.99999999999998 Q 850,49.99999999999998 860,50 Q 870,50.00000000000001 870,50.00000000000001 L 920,50" fill="none" stroke="#004291" stroke-width="2" stroke-linecap="round" stroke-linejoin="round" stroke-dasharray="0 0"/><path d="M 920,50 L 911.304347826087,44.25 L 911.304347826087,55.75 Z" fill="rgb(0,66,145)" stroke="#004291" stroke-width="2" stroke-linecap="round" stroke-linejoin="round"/></g><g transform="translate(849.5, 38.999999999999986)" width="21" height="22"><text text-decoration="none" x="0" fill="#4b4b4b" font-size="12pt" font-family="lt_regular"  y="17">No</text><text text-decoration="none" x="21" fill="#4b4b4b" font-size="10pt" font-family="noto_regular"  y="17"></text></g></g><g id="NmI0drfk4y4"><mask id="5c1d4" x="686" y="86" width="28" height="178" maskUnits="userSpaceOnUse"><rect x="686" y="86" width="28" height="178" fill="white" /><rect x="685" y="161" width="30" height="28" fill="black" /></mask><g mask="url(#5c1d4)"><path d="M 700,100 L 700,250" fill="none" stroke="#004291" stroke-width="2" stroke-linecap="round" stroke-linejoin="round" stroke-dasharray="0 0"/><path d="M 700,250 L 705.75,241.30434782608697 L 694.25,241.30434782608697 Z" fill="rgb(0,66,145)" stroke="#004291" stroke-width="2" stroke-linecap="round" stroke-linejoin="round"/></g><g transform="translate(688, 164)" width="24" height="22"><text text-decoration="none" x="0" fill="#4b4b4b" font-size="12pt" font-family="lt_regular"  y="17">Yes</text><text text-decoration="none" x="25" fill="#4b4b4b" font-size="10pt" font-family="noto_regular"  y="17"></text></g></g><g id="PnbLAeICqTy"><g><path d="M 1070,50 L 1125,50.00000000000001 Q 1125,50.00000000000001 1135,50 Q 1145,50 1145,50 L 1200,50" fill="none" stroke="#004291" stroke-width="2" stroke-linecap="round" stroke-linejoin="round" stroke-dasharray="0 0"/><path d="M 1200,50 L 1191.304347826087,44.25 L 1191.304347826087,55.75 Z" fill="rgb(0,66,145)" stroke="#004291" stroke-width="2" stroke-linecap="round" stroke-linejoin="round"/></g></g><g id="ap3jhwMLwvI"><g><path d="M 1275,80 L 1275,250" fill="none" stroke="#004291" stroke-width="2" stroke-linecap="round" stroke-linejoin="round" stroke-dasharray="0 0"/><path d="M 1275,250 L 1280.75,241.30434782608697 L 1269.25,241.30434782608697 Z" fill="rgb(0,66,145)" stroke="#004291" stroke-width="2" stroke-linecap="round" stroke-linejoin="round"/></g></g><g id="qNAKzz7qdea"><g><path d="M 700,-80 L 700,0" fill="none" stroke="#004291" stroke-width="2" stroke-linecap="round" stroke-linejoin="round" stroke-dasharray="0 0"/><path d="M 700,0 L 705.75,-8.695652173913045 L 694.25,-8.695652173913045 Z" fill="rgb(0,66,145)" stroke="#004291" stroke-width="2" stroke-linecap="round" stroke-linejoin="round"/></g></g><g id="glf50T3eFdi"><g><path d="M 700,-200 L 700,-150" fill="none" stroke="#004291" stroke-width="2" stroke-linecap="round" stroke-linejoin="round" stroke-dasharray="0 0"/><path d="M 700,-150 L 705.75,-158.69565217391303 L 694.25,-158.69565217391303 Z" fill="rgb(0,66,145)" stroke="#004291" stroke-width="2" stroke-linecap="round" stroke-linejoin="round"/></g></g></svg>